<svg xmlns="http://www.w3.org/2000/svg" overflow="visible" viewBox="-74 -132 2048 1522"><path fill-rule="evenodd" d="M349 27c1 8 5 13 10 17 5 2 4-3 9-3-5 22-26 4-27-10h-5c-3 7-5 18-4 24-4 1-7 3-10 1 1-15 7-30 7-44 3 0 6-3 9-1 2 5-2 11-2 16 2-5 23-2 19-16-4-12-32 1-37 9-6-17 32-26 43-16 8 9-2 22-12 23zM543 1c3 5-6 13-13 13V7c6 0 9-3 13-6zM632 2c-3 7-7 12-15 12V8c5 0 11-7 15-6z" clip-rule="evenodd"/><path fill-rule="evenodd" d="M455 11c-1 9-4 17-4 26 16-5 22-29 45-21l10-2c-2 8-6 19-3 28 17 0 15-24 31-22 1 11-5 18-2 26 14-3 20-16 26-28l7-1c2 4 0 12 0 16 6-6 10-21 21-19 10 3 5 19 8 30 14-2 10-23 26-25 4 9-4 19-1 27 13-4 21-14 25-28 3 1 4-1 8-1 3 5 0 9 1 16 5-7 10-21 20-19s5 19 8 30c16-5 17-37 43-28 2-2 4-5 10-5-1 9-5 16-4 26 9-3 13-11 22-15-1 11-15 17-23 23 0 16-6 26-18 28 4 5 11 3 18 1-3 17-10 34-8 51 15 1 15-19 24-22 5 3-9 23-14 26-9 7-22 6-19-12-7 2-12 14-23 14-5-2-7-6-6-15-7 7-10 18-23 17-4-2-6-6-6-11-5 4-7 11-17 10-8-4-5-20-7-30-12 6-15 20-21 31-12 1-4-16-4-24-4-1-10 2-15 0 1 21-32 35-38 12-9 4-13 16-23 12-13-3-2-23-3-33 3 1 3-1 6-1 6 8-3 20 0 27 19-2 17-27 38-29 2 0 0-4 2-5 13 1 13 14 28 12 5 0 3-8 11-7 3 3 2 12 1 16 7-6 8-19 22-19 9 4 3 23 8 31 13-7 14-29 32-31 8 0 11 4 21 0-2 9-7 21-2 29 15-6 23-20 26-40-5-1-11-2-9-10-10 3-16-3-15-11 1-12 26-11 26-24-5 4-21 20-27 4-5 4-8 11-14 10-13-1-5-20-10-31-11 8-15 21-21 32-11 1-5-14-4-21-5 12-37 36-34 5-6 3-10 17-19 15-12-1-5-22-9-31-10 7-16 19-20 31h-6c-3-6 1-12 0-20-4 13-38 36-33 3-7 3-11 17-26 15-3-2-5-6-4-13-6 2-11 17-20 16-7 0-11-8-8-18-5 1-10 8-16 10 4 21-22 38-33 25-1 0-2-4-1-7 1-14 25-9 27-26-8 5-13 15-24 11-2-2-5-4-4-9-6 8-29 23-38 9-11-14 6-39 24-34 15 5-2 28-17 24-1 5 1 7 4 8 29 2 27-38 57-30 2-3 4-5 10-5zm-71 22c8 0 16-5 14-14-10 0-12 7-14 14zm40 8c11-1 16-10 20-19-12-7-22 5-20 19zm279 0c11-1 15-10 20-19-12-8-23 8-20 19zm-227 4c9-4 13-14 19-22-14-10-27 9-19 22zm-51 21c8 7 17-3 16-14-6 0-18 7-16 14zm295-14c-6 0-18 7-16 14 9 7 17-3 16-14zm-56 73c11-2 13-14 20-21-13-11-26 6-20 21zm-97 3c10 2 15-12 13-23-16-13-29 21-13 23zM950 78l9-1c1 5-2 11-2 16 2-8 18-3 16-17-14-10-28 8-35 10-3-27 68-22 36 3 26 13-8 44-29 29-2-12 6-27 5-40zm3 35c10 6 26-1 21-15-4-3-12-2-17-4l-4 19zM1055 67c-1 5-4 6-4 10 5 2 16 2 21 0 4-4 4-12 14-10l-4 10c6 3 16 1 23 0 0 11-16 6-25 7-3 8-7 19-3 27 8 2 10-4 15-7 2 10-8 16-19 15-10-5-6-24-2-34-6-2-15 0-22-1-3 7-8 20-3 27 9 2 9-5 15-7 2 18-31 22-25-1-9 9-33 26-43 8-11-25 29-41 32-23 1 12-13 16-23 17 6 22 34-8 38-20-2-2-7 0-10-1-1-6 5-6 11-6 2-5 3-12 14-11zm-53 33c8-1 18-7 13-15-9 1-12 7-13 15zM366 80c5 8-12 10-21 8-4 3-2 10-4 13 4 3 12 0 18 0-2 7-9 8-18 7-3 4-4 10-3 17 6 3 16 1 22-1-1 12-22 11-30 7-4-6 0-14 1-22-2-3-4 2-6 0 1-4 2-7 8-7-1-5 2-8 2-14-5 0-7 3-11 3 1-16 31-4 42-11z" clip-rule="evenodd"/><path fill-rule="evenodd" d="M510 80c2 4-4 7-4 11 17 5 28-4 39-10-1 8-8 11-12 14-2 0-3 0-3-2-6 8-17 4-25 5-4 6-8 20-3 27 8 2 9-4 14-7 1 23-37 17-23-9h-12c1 19-31 36-38 13-7 4-9 13-20 11-8-6-3-21-1-30-6 4-11 10-14 15-4 6-5 15-13 15-3-9 3-18 3-29-9 3-14 19-18 29-16 0 0-23-6-34 2-1 5-2 9-1 1 4 0 11-1 15 8-5 8-19 22-19 5 5 1 13 1 19 6-6 8-18 22-19 9 7-3 22 1 31 16-3 13-26 32-28 2 0 1-4 4-5 9 1 24 24 31 6h-10c0-4 4-6 11-6 4-4 4-13 14-12zm-52 48c9 2 14-10 13-23-17-13-29 21-13 23zM1149 99c7-6 10-18 24-19 0 2 2 2 3 4-1 6-6 9-10 5-12 6-15 20-21 30h-5c-3-5 0-12 1-18-9 5-18 23-36 18-18-4-8-41 14-39 19 3 3 29-14 25 7 22 34-7 38-20l7-1c2 5 0 12-1 15zm-44 0c6 1 15-3 15-12-8-5-13 6-15 12zM919 140c-1 18-11 36-6 52 16-3 16-27 32-31 9-2 14 4 25 0-3 7-6 19-3 28 12-3 18-13 23-24-2-2-8 0-10 0-1-6 4-7 11-7 3-5 4-12 14-11-1 5-4 6-4 10 17 6 28-4 39-9-7 15-20 17-41 16-2 8-9 23-1 28 7 1 9-8 13-7 3 15-30 23-25-1-7 2-11 15-24 13-3-3-6-7-5-14-6 7-11 15-21 17-4-2-8-5-7-12-6 12-32 18-26-5-6 8-39 29-44 7-5-16 9-33 29-28 9 13-7 24-20 23 3 20 32-2 38-17 2-6 1-14 4-18-5-2-11-2-10-9 3 0 14 3 19-1zm-51 40c8-1 14-4 15-13-10-3-13 7-15 13zm72 11c7-1 13-13 18-21-13-12-28 10-18 21z" clip-rule="evenodd"/><path fill-rule="evenodd" d="M1178 140c6 3 13 2 20 0-1 13-5 23-6 34 4-6 10-16 22-12 4 6 2 19 4 27 9-3 14-13 19-22l7-1c4 10-4 19-1 27 14-4 21-16 27-30-5-1-12-1-11-8 5 0 12 1 20-1l-1 9c3 1 7-3 14-2 20 6 2 49-20 36-4 6-4 18-4 23-3 0-7 1-8-1-1-10 3-24 6-36-6 12-36 29-31 0-6 2-10 15-18 14-12-1-6-18-10-29-12 5-17 21-20 31-4 1-4 2-7 0-2-4 1-13 3-20-3 0-7 7-12 7 8 17-22 26-23 12-1-6 8-8 13-12-1-3-4-4-4-9-9 6-13 25-24 22-10-2-5-19-8-31-12 6-15 20-21 31l-2 1c-9-2-2-15-3-25-2-1-11 4-14 0 0 21-32 36-39 12-6 8-23 20-28 8-4-8 5-17 2-28l8-1c3 9-5 19-1 27 18-3 17-27 37-29 2 0 0-4 3-5 13 1 17 18 31 10 3 0-3-3 1-4l8-1c2 5-1 10 0 16 6-7 7-20 23-19 7 6 1 23 6 30 14-5 13-26 28-32l4 4c0 5-4 6-5 9l5 10c13-4 18-16 21-32-2-1-8 0-9-3-1-2-2-3-2-7zm95 51c12 11 25-10 17-22-15-5-17 10-17 22zm-211 3c10 1 13-10 13-22-17-13-30 21-13 22zm93 4c4 3 10 0 9-6l-2-1c-2 3-6 4-7 7zM823 158c0 7-2 11-3 16 3-4 19-3 20-14-9-15-32-1-38 7-7-18 38-27 45-14 5 10-5 19-14 21 1 8 5 13 10 17 5 2 4-3 9-3-1 8-7 12-11 11-11 0-11-20-21-21-2 8-5 17-4 24-4 0-7 4-9 1-1-13 7-30 6-44 2-1 7-3 10-1z" clip-rule="evenodd"/><path fill-rule="evenodd" d="M1256 149c-3 7-7 11-14 12-2-1-1-3-1-6 5-1 11-7 15-6zM494 154c-1 18-11 36-6 52 18-5 20-40 46-29 3-1 7-3 11-2-3 7-6 19-3 28 13-3 19-16 24-25 2 1 2-1 5-1 3 3 1 11 2 16 5-7 11-21 21-18 9 4 3 20 8 30 13-9 23-42 46-26 0 5-2 7-6 7-5 1 0-6-4-6-14 0-19 18-11 26 29 6 26-39 57-30 8 13-7 23-20 23-1 6 2 8 5 8 15 5 26-22 35-24-3 16-24 37-46 27-1-3-4-4-3-10-8 11-36 24-40 1-6 5-8 13-19 11-7-5-2-22-6-30-11 7-15 19-20 31-12 2-6-13-5-20-5 6-32 34-33 4-4 10-27 28-28 4-4 13-32 18-26-4-7 3-12 15-24 14l-2-1c-3-2-4-7-3-13-8 5-10 19-22 16-19-4 2-53 23-36l11-2c-3 8-6 19-3 28 16-5 23-20 27-39-1-3-8-1-9-4 0-2-2-2-1-5 4 0 13 3 19-1zm170 40c7-1 13-4 15-12-6-6-15 4-15 12zm-234 11c11-2 13-13 20-21-13-11-26 6-20 21zm84 0c10-3 14-12 19-22-14-10-26 10-19 22zM1325 164c-1 4-4 6-5 8 0 5 3 7 5 10 8-1 11-13 20-13-3 9-10 13-17 17 4 16-15 24-23 14-1-9 7-10 13-14-12-6-6-36 7-22zm-13 34c4 5 12-4 7-7-2 3-7 3-7 7zM387 172l-2 13c2-4 18-3 16-13-3-13-31 3-35 9-4-18 30-25 43-15 2 8-3 14-7 17 25 13-6 42-29 30-3-14 5-25 5-41 3 0 6-2 9 0zm-6 35c22 12 31-24 3-19 0 8-3 12-3 19zM1469 208c-2 16-7 29-8 45 5 7 18 2 25 0-2 13-25 12-33 7-2-17 5-38 8-52h8zM1552 226c1 6-4 6-5 9l5 10c12-3 15-16 25-23 3 1 4 3 6 5 0 5-4 5-5 8 0 5 4 7 5 10 8-1 11-13 20-13-2 10-11 13-17 17 6 19-22 24-23 12-1-7 8-8 13-12-2-4-5-7-6-11-5 4-9 9-15 11 8 17-22 25-23 12-1-6 8-8 13-12l-5-10c-10 12-20 27-42 22-14-14-1-44 23-36 9 13-7 24-20 23 11 25 36-16 45-26 3 1 5 2 6 4zm-50 17c7-1 14-3 14-14-8-1-14 6-14 14zm38 19c5 1 8-1 8-7-3-1-8 3-8 7zm30-1c4 3 10-1 9-7-5 1-8 3-9 7zM1104 272c9 20 16 50 15 78-1 9-1 21-5 28-7-2-3-14-2-20 1-32-4-66-16-87 1-4 5-5 9-8-10-12-24-19-36-28-2 13-2 28-3 40 4 3 5-5 12-4 16 24 25 74 14 108-8-3-3-14-2-21 1-29-3-61-15-79-6 2-8 7-15 6-1-17 1-42 2-59 9 1 17 8 29 16 13 10 34 21 13 30zM628 268c0 8-9 7-12 10l51 81c5 9 12 18 14 28-10 0-15-16-20-25-17-27-37-56-53-85 0-5 7-4 10-8l-42-26 6 48c5 1 6-3 12-3l50 78c5 9 13 17 13 27-10-4-14-15-18-23-15-24-32-49-47-75l-13 5c-7-17-10-48-9-66l2-1 56 35zM1408 290c2 15 0 39 9 50-9 9-14-5-14-14h-18c-4 3-6 8-5 15-3 2-4 3-8 2-4-6 2-12 4-17-3-3-7 4-9 0 1-4 5-6 12-6 10-9 14-24 29-30zm-20 30h14c-2-4 0-13-3-17-4 6-9 10-11 17zM1620 290c1 3-4 7-4 11h24c-1 10-16 5-25 6-4 6-9 23-2 28 8 2 8-8 14-6-1 16-30 21-26-2-7 8-38 29-43 3-6 11-35 22-28-4-7 5-12 15-22 14-4 0-10-8-11-8-6 1-5 13-9 16-4 1-3-3-5-4 0-8 6-11 10-17l-4-8c-7 8-11 25-22 23-13-1-5-19-10-31-11 7-15 21-21 32-14-2 0-24-5-35 3 1 4-1 8-1 3 4 0 10 1 16 5-7 10-21 20-19s5 19 8 30c11-2 11-14 19-21-1-6 2-8 8-8-1 7 2 11 4 15 6-2 6-10 10-15 2 0 2 2 5 1 3 12-12 14-12 19 0 3 5 7 9 7 13 1 14-21 28-23 3 9-4 20-1 27 18-1 24-37 46-32l6 5c0 15-10 18-23 19-1 5 1 7 4 8 19-1 27-13 34-28-3-2-7 1-10 0 0-5 4-7 11-7 4-4 4-12 14-11zm-53 33c8-1 15-3 15-13-10-3-13 7-15 13z" clip-rule="evenodd"/><path fill-rule="evenodd" d="M1551 292c-3 7-7 12-15 12v-6c5 0 11-7 15-6zM1661 304l7 2c-5 19-15 40-31 50-4 3-16 11-16-3 9 1 18-4 23-12-1-14-8-21-12-32 4 0 4-2 9-1 3 8 7 15 9 24 5-7 10-16 11-28zM207 332c0 5-3 6-4 9-22-26-50 34-21 34 7 0 11-6 13-14-4-2-11 2-15 2 0-11 16-8 26-10-7 13-2 36-20 36l5-11c-7 5-22 4-27-5-13-20 19-54 43-41zM367 329c-1 5-4 6-4 10 5 2 17 2 23 0 1 12-16 6-25 7-3 8-9 23-1 28 7 1 7-6 13-7 3 15-30 23-25-1-7 2-11 15-24 13-3-3-6-7-5-14-7 7-12 19-24 16-3-3-5-6-4-13-8 10-36 23-41 4-5-15 7-31 27-29l5 5c0 15-11 18-23 19-1 5 1 7 4 8 29 2 27-39 58-30l11-2c-3 7-6 19-3 28 12-3 17-13 23-24-2-2-8 0-10 0-1-6 4-7 11-7 3-5 4-12 14-11zm-108 33c8 0 14-4 15-13-9-3-14 6-15 13zm43 11c7-1 13-13 18-21-13-12-28 10-18 21zM251 345c1 6-4 6-5 9-2 0-3-2-5-3-10 7-16 18-20 30-4 1-3 2-6 0-5-9 5-22 2-34 3 1 4-1 8-1 2 5-1 12-1 16 6-7 13-23 27-17z" clip-rule="evenodd"/><path fill-rule="evenodd" d="M409 348c0 15-11 18-23 19-1 5 1 7 4 8 18-2 28-12 33-28 3 1 4-1 8-1 2 5-1 12-1 16 6-7 13-23 27-17 1 6-4 6-5 9-3 1-3-3-5-3-13 6-14 24-24 31l-3-1c-2-4 0-12 2-17-9 5-17 19-31 18-25 0-16-46 13-39l5 5zm-23 14c8 0 14-4 15-13-9-3-14 6-15 13zM1488 357c6 15 9 48 2 63-6 0-8-3-12-5-22 27-49 52-78 73-4 3-9 9-13 4 7-10 19-17 30-25 21-17 40-36 57-60 6-1 7 4 12 4 2-13 0-31-1-44-10 7-23 17-35 23 2 4 9 2 11 6-12 30-38 48-62 66-8 6-15 15-25 15 0-8 12-13 19-19 22-16 46-33 60-59-3-4-13-1-13-8 12-14 33-19 44-34h4zM116 446c-5 13-34 26-29-1-13 5-10 20-32 17-25-2-10-46 14-39 14 5-1 28-17 24-1 5 1 6 3 8 24-2 35-18 38-43-4-2-10-2-9-9 3 0 14 3 19-1-1 19-10 34-7 52 12 0 13-11 19-18-1-2-3 3-6 1 0-6 4-8 10-8 0-15 16-36 30-22 0 4-3 3-3 5-6 2-3-5-8-4-9 2-8 14-11 21h23c-1 9-14 6-23 6-4 12-7 28-7 39-4 0-4 2-7 1-5-8 2-19 3-29zm-64-4c8 0 15-3 15-13-10-3-13 7-15 13zM282 442c7-6 9-20 20-19 11 2 6 18 9 30 10-1 10-11 16-17-1-2-6 4-6 0-1-6 4-7 10-7 0-10 7-25 18-27 5 0 16 3 8 10-5 2-2-5-7-4-9 2-8 13-11 20 6 3 17 1 24 0 4 10-4 20-1 27 22-3 21-39 50-30 3-2 2-9 4-13-5-1-10-2-11-7 2-3 15 1 20-3 1 16-10 34-6 52 15-3 22-35 43-31 16 4-1 28-17 25 0 3 2 5 4 7 19-1 28-13 34-28 3 1 4-1 8-1v16c6-6 8-18 22-19 8 4 4 21 7 30 14-5 22-43 47-25-1 4-3 6-6 7-4 0-1-6-5-7-15 0-20 26-6 28 21 4 27-45 54-30 5 16-10 20-22 22l2 5c18 8 28-15 37-21 5 3-3 12-8 17-10 10-35 23-40 0-6 9-35 25-39 1-7 4-8 13-18 11-8-4-4-21-7-30-12 6-15 20-21 31-11 1-4-12-5-20-6 9-40 36-46 7-7 8-29 24-28-2-4 9-26 26-27 3-7 2-11 13-20 12-12-1-9-14-6-26-4-2-12 0-17-1-4 12-7 24-7 39-4 0-4 2-7 1-5-7 1-18 2-27-6 3-10 15-18 13-10-1-6-17-8-30-13 5-16 20-22 31-12 0-4-16-4-24h-15c-3 13-9 24-21 24-24 2-23-34 1-36 2 0-1-5 3-5 11 1 14 15 26 12 6-1 4-8 13-7v16zm164 0c9 0 13-4 15-12-8-5-14 5-15 12zm137 0c8 0 16-5 13-14-9 1-12 7-13 14zm-191 12c9-3 14-13 19-22-14-10-26 10-19 22zm-157 2c11 4 18-11 15-22-14-12-29 18-15 22z" clip-rule="evenodd"/><path fill="#279A2F" fill-rule="evenodd" d="M711 409c-5 10-17 12-25 17-44 27-88 57-121 97-23 27-38 54-25 85 11 29 45 54 75 72 31 19 65 36 99 47a840 840 0 00491-13c35-13 62-30 94-53 29-20 69-49 65-90-4-30-29-46-46-68-54-28-121-53-195-65-57-9-115-15-172-23-17-2-37-3-50-7l-2-1 2-2c158 4 300 21 408 78 33 18 72 42 83 79 6 22-2 44-13 61-20 29-50 51-83 70-34 21-66 37-107 46-99 24-264 45-398 20-42-7-77-19-113-34-36-14-71-28-102-51-30-20-60-52-59-91 0-47 42-83 74-108 36-28 73-46 120-66z" clip-rule="evenodd"/><path fill-rule="evenodd" d="M35 420c-3-4-19-8-19 2-1 10 29 21 14 37-9 10-41 9-26-11 1 12 20 16 22 4 1-12-27-18-15-36 4-7 30-11 24 4zM213 422c-7-2-5-6-11-7-15-2-24 18-20 32 4 16 24 6 32 0-4 21-39 20-42 1-3-11 5-27 13-33 5-4 34-12 28 7zM375 411c-3 7-7 12-15 12v-6c5 0 11-6 15-6zM166 437l-4 7-15-1c-1-8 14-6 19-6zM963 482c-1 5-4 6-6 8-5 0-4-6-8-7-13 3-13 18-16 29 9 4 25 0 34 1 4 13-6 25-2 36 19-5 28-21 36-39-4-3-9 1-14 0 0-8 6-9 16-9 3-7 5-16 18-15 1 5-5 9-5 14 8 2 23 2 32 0 0 15-22 7-34 9-5 9-13 32-2 39 9 0 10-8 18-10 4 21-41 31-35-1-7 8-28 33-42 14-1-12 2-20 4-30h-24c-5 16-11 35-9 53-4 2-9 3-12 1-2-14 3-28 6-41-8 12-52 42-61 8-7 7-14 20-27 13-7-8-3-29-7-40a81 81 0 00-27 43c-17 3-7-17-8-28-10 7-29 37-54 27-23-9-5-61 26-52 20 7-3 39-24 33 8 30 44-8 51-21 2-2-1-2 0-6 3 0 8-3 12-1 2 7 0 16 0 22 7-9 14-31 30-27 12 4 4 29 10 41 15-1 21-37 41-41 9-1 19 1 21 8 4 17-17 25-32 25 5 28 41-4 47-15-2-3-7 4-8 0 0-7 6-10 14-10 0-19 19-49 41-31zm-226 49c11 0 22-7 19-19-13 0-17 9-19 19zm133 0c11 0 22-7 19-19-14 0-17 9-19 19zM1218 490c-13-16-23 9-23 22 8 3 24 0 31 1-2 12-20 7-32 8-4 16-10 36-9 53-3 2-8 4-11 1-3-17 5-33 7-50-3 1-13 2-18 0-4 17-11 31-25 33-38 8-36-50-2-49 1-1 0-5 2-7 15 0 17 14 30 16 5-1 7-6 16-5 2-8 1-15 7-25 6-9 30-18 33-7 1 6-2 7-6 9zm-92 59c14 11 28-13 24-29-19-15-39 19-24 29zM402 492c4 7-9 8-9 13s17 13 24 16c18 9 45 10 68 11-5 8-24 6-32 5-29-1-54-14-68-30 1-5 5-6 8-10-14-2-29-4-41-8 4 16 10 30 18 42 4 0 4-5 9-7 17 7 33 25 55 29 16 4 36-1 52 1 1 6-6 6-9 6-44 8-74-12-96-28-6 1-6 9-13 8-11-16-22-38-24-59 16 3 38 9 58 11zM698 516c12 6 20 18 11 30s-45 23-51 10c-7-11 12-41 8-54l11-2c2 17-6 33-7 49 25 19 46-32 6-24-1-16 23-7 22-23-1-6-10-7-16-7-15 1-24 13-32 19-15-23 53-38 59-19 3 10-5 18-11 21z" clip-rule="evenodd"/><path fill-rule="evenodd" d="M983 487c-3 10-9 17-20 18-3-2-1-6 0-10 9 1 12-6 20-8zM1054 520l7 14c4-1 8-3 13-7s8-14 16-10c-5 12-15 17-24 23 8 25-30 33-32 17-2-10 11-12 18-17-3-10-13-14-9-27 4-18 29-3 11 7zm0 26c-4 4-9 5-10 10 5 6 16-4 10-10zM1558 609c5-2 7-10 14-10 8 2 13 26 17 36 5 16 11 30 9 41-22-8-48-13-71-21 0-8 7-10 12-14-19-25-54-38-93-40-6 0-17 3-19-4 4-6 15-4 24-4 28 2 59 12 80 28 5 5 17 14 18 18 0 6-9 9-10 12 17 4 35 8 50 14-3-17-11-38-18-55-6 2-8 7-13 9-20-11-39-34-63-42-21-6-47-1-67-6-1-4 1-6 4-7 61-4 95 19 126 45zM1167 654c-8 6-10 15-24 13-10-7-6-27-8-41-16 8-22 25-28 42-4 1-5 2-8 0-5-7 0-19 0-29-2 11-45 50-48 18-1-4 2-7 2-13-7 19-47 42-41 1-7 14-63 45-60-1-4 0-8 6-12 7 11 23-32 34-32 15 0-8 11-11 18-15-1-6-5-9-7-14-10 12-13 31-34 30-10-6-6-27-8-41-16 8-22 25-28 42-4 1-5 2-8 0-5-6-1-19 0-27-5 12-42 46-42 5-4 15-35 36-38 11-1-7 3-12 3-21-3-1-14 2-17-1 1 27-41 49-52 22-7-15 3-37 24-37 1-2 1-6 4-8 16 2 23 25 43 14 2 0-1-7 2-8 4 0 8 0 11 2 0 14-9 24-5 38 18-5 25-23 30-42h11c1 11-9 27-2 39 12-1 25-20 27-34 4 1 5-2 10-2 6 5 1 15 2 23 7-9 13-28 27-27 15 2 6 29 13 42 19-7 19-34 37-44 10 3 6 14 0 18l7 14c16-6 26-31 47-30 27 2 4 39-19 34-1 6 2 8 5 10 33-3 47-26 52-59-6-2-14-2-13-12 6 1 18 4 26-1 0 22-14 48-9 71 18-3 23-24 31-35 3 1 4-1 8-1 7 10-3 24-1 37 20-3 30-23 36-38 3 0 7-3 11-1 2 7 0 15 0 22 7-9 13-28 27-27 15 2 7 28 13 42 21-9 24-52 58-39 2-4 7-6 14-7-2 13-6 23-6 36 10-1 20-18 31-20 3 8-8 13-13 17-7 5-13 11-19 14 2 24-18 46-38 39-4-1-9-5-9-8-6-21 27-23 36-33 0-3-1-8 1-10-7 9-30 28-38 8zm-202-12c10-2 22-6 18-20-12 1-17 9-18 20zm216 11c13-3 19-15 26-26-16-13-35 12-26 26zm-466 8c15 3 19-14 19-30-22-19-42 27-19 30zm204 6c4 3 8-1 11-3 2-13-12-2-11 3zm260 18c11 14 26-3 24-19-11 5-20 9-24 19zM682 614c-9-3-8-12-21-10-20 3-35 51-10 56 14 3 19-6 32-13 0 27-52 31-57 3-6-29 19-58 48-53 9 2 14 9 8 17z" clip-rule="evenodd"/><path fill-rule="evenodd" d="M1080 597c3 8-9 18-18 19-2-1-1-5-1-9 7-2 14-5 19-10zM1829 681c4 15-10 34-5 52 13-2 16-19 26-22-4 13-16 31-33 29-3-3-3-8-2-14-5 9-28 26-28 2-6 8-43 26-41-4-2-2-5 4-8 4 5 18-22 24-23 12-1-7 7-9 13-12-1-4-4-5-5-10-9 9-13 20-28 21-4-2-7-6-6-14-4 10-28 28-28 3-6 5-30 23-39 8-11-16 11-43 29-30 4 15-10 20-22 21-1 5 2 5 3 7 27 3 28-30 49-32 8 0 11 5 20 0 0 6-6 20-2 29 17-3 17-24 32-30 0 1 1 2 3 2 2 5-2 8-4 11l5 10c11-3 18-25 36-22 16 4 0 28-16 25-1 4 2 5 3 7 31 4 29-41 60-29l3-14c-5-1-12-1-10-9 4 2 14 3 18-1zm-200 40c6 1 15-3 15-12-8-5-13 6-15 12zm128 1c6-2 13-4 13-14-8-3-16 8-13 14zm-86 11c10-3 14-13 19-22-14-10-26 10-19 22zm126 0c10-3 14-12 19-22-14-10-26 10-19 22zm-75 7c5 3 9 0 9-7-5 1-8 3-9 7zM1482 695h-10c-4 12-6 26-8 38 1 3 7 1 11 1l1 7c-10-4-30 9-31-6 3 0 4 2 8 1 5-10 5-25 9-38-5-1-12 0-10-8 8 5 28-10 30 5zM1529 733c11-4 19-35 40-31 5 2 9 10 1 12-5 0-1-4-5-6-19 0-20 33 0 26 10-3 18-18 23-28h7c2 4 0 11-1 14 6-3 14-24 27-15 0 5-3 6-4 8-4 1-3-2-6-2-11 6-15 19-21 30h-5c-4-4 0-12 1-18-5 9-37 34-43 6-7 4-8 13-19 11-8-4-4-20-6-30-13 6-15 21-22 31-13-2 0-23-5-34l8-2c3 4 0 10 1 16 6-7 10-21 23-18 6 6 2 22 6 30zM1307 756c35 19 53 56 69 94 6 1 10-2 17-1 7 27-1 61-7 83-8-1-11-9-14-15-11-16-24-32-34-50 3-3 7-2 13-2-8-28-22-50-38-70-5-5-14-11-13-20a176 176 0 0159 96c-3 2-8 1-11 1 11 16 23 30 33 46 5-16 5-42 7-59l-14 1c-17-39-36-76-68-100l1-4zM620 758c-2 9-14 14-22 20-24 18-48 39-73 56-5 0-7-5-10-7-9 14-16 29-23 43l48-10c-2-3-6-5-7-10 23-20 50-38 75-58 7-6 14-16 26-16-4 10-15 15-22 20-23 18-46 37-70 54 1 6 8 6 8 14-21 6-46 12-67 13 0-10 8-20 14-30 5-10 8-22 17-29 5 1 6 6 11 8l90-69c1 1 5-1 5 1zM1442 819c-10 9-14-6-15-15-5 2-12 1-18 1-3 4-6 10-4 15-4 2-8 4-10 0 0-6 3-11 6-16-5-1-7 4-9 1 1-4 4-6 11-6 11-8 15-29 32-29-3 18-1 39 7 49zm-30-20h14c0-6 0-13-2-17-5 6-9 11-12 17zM1612 769c-1 5-4 6-4 10 17 6 27-5 39-9-2 7-8 9-11 13-8 1-17 5-30 3-3 8-9 23-1 28 6 1 9-8 13-7 1 9-8 15-20 14-9-6-4-25-1-35-7-1-7 6-10 8-3 1-3-2-5-3-11 7-16 18-20 30h-7c-3-5 0-12 2-18-5 10-45 35-45 1-3-2-5 5-9 4 8 17-22 25-23 12-1-6 8-8 13-12-1-4-5-6-5-11-5 4-10 9-15 11 4 16-15 24-23 14-1-9 7-10 13-14-7-6-12-24 2-27l5 4c-1 5-3 7-5 9 0 5 3 7 5 10 12-3 14-17 26-23l4 3c1 6-3 7-5 10l5 10c15-4 16-23 39-21 12 11-4 25-18 24-1 5 1 7 4 8 18-2 27-13 33-28 2 0 7-2 9 0l-2 15c7-11 15-21 33-22 3-5 4-12 14-11zm-91 33c8-1 16-5 14-14-10 0-12 7-14 14zm-64 18c4 3 10-1 9-7-5 1-8 3-9 7zm31 1c5 1 8-1 8-7-3-1-8 3-8 7z" clip-rule="evenodd"/><path fill-rule="evenodd" d="M1661 781c5 8 9 18 10 29 5-2 11-15 13-25 13 3-6 31-11 34-3 2-7 3-10 2 3-7-1-15-2-23-10 9-13 24-32 23-9-6-2-21-1-33h7c3 9-5 19-1 27 12-3 17-14 24-23-3-4-10-12 3-11zM1850 785c-1 5-3 7-5 9 0 5 3 7 5 10 12-3 14-17 26-23l4 3c1 7-3 8-5 10l5 10c9-1 12-13 20-13-1 8-10 14-17 17 8 17-22 25-23 12-1-6 8-8 13-12-1-4-5-6-5-11-5 4-10 9-15 11 4 16-15 23-23 14-1-9 7-10 13-14-1-3-5-5-5-10-7 13-38 38-48 12-6 3-8 11-14 11-14 0-6-19-11-31-11 7-15 19-20 31-12 2-5-13-5-20-10 7-18 23-39 20-20-12 0-50 23-35 3 15-9 21-22 21-1 5 1 7 4 8 18-2 27-13 34-28l7-1c2 4 0 11 1 15 6-7 8-18 22-18 7 5 3 21 6 30 16-6 16-38 44-28 6 14-8 22-21 22-1 5 1 7 4 8 23-1 28-21 40-34 3 0 4 3 7 4zm-148 17c8-1 14-4 15-13-10-3-14 6-15 13zm97 0c8-1 16-5 14-14-10 0-12 7-14 14zm38 18c4 5 12-4 7-7-2 3-7 3-7 7zm31 1c5 1 8-1 8-7-3-1-8 3-8 7zM923 810c6 5 4 14 5 21 1 16 5 39 2 57-2 14-12 31-18 44-8 15-18 27-25 37 0 6 4 9 5 14-11 10-25 18-38 26s-27 17-42 19c12-26 30-46 37-79 6 0 9 3 14 4 8-7 15-19 22-32 11-19 20-34 19-67l-2-24c-1-6-5-14 0-19 7 5 7 21 8 32 3 56-22 88-43 118-6 1-10-1-13-3-7 23-19 39-28 58 18-7 39-22 57-34-7-14 1-20 10-32 23-32 38-75 27-137-1-1 1-1 1-3h2zM285 899l2 2c2 10-10 12-20 11-4 14-8 27-8 43-4 1-7 4-9 1-1-13 6-28 7-43-5-3-12 1-17 0 2-17 40 1 45-14zM325 921c0 4-3 5-4 7-4 1-3-2-6-2-10 7-17 16-19 29-3 2-8 2-9-1 0-11 5-21 4-32 2 0 7-2 9 0l-2 14c6-6 16-25 27-15zM364 917c-1 9-7 22-2 29 12-4 19-13 23-26h8c2 9-7 19-3 28 13-3 18-16 21-30h9c-1 9-6 20-2 29 11-4 16-14 21-26 3 1 3-1 6-1 3 3 2 13 1 17 6-6 9-22 23-19 2 5 0 13 0 18 6-7 9-17 21-19l2 1c5 9-2 20-1 30 19-4 19-40 46-28l9-3c1 7-7 21-1 29 12-2 15-18 25-20-4 12-17 31-33 26-2-3-3-6-2-12-6 9-26 28-29 5-5 6-11 14-21 10-5-7-1-20 1-28-7 1-9 8-13 14s-7 15-14 15c-4-7 3-19 3-29-11 5-13 20-19 29-11 1-5-14-4-20-9 7-10 20-26 18-3-2-6-9-4-14-4 11-31 29-28 0-6 4-12 14-23 14-4-2-7-6-6-14-4 8-23 26-28 10-6-17 13-40 30-30 3 0 5-3 10-3zm-30 31c9-4 14-13 19-22-14-10-26 10-19 22zm182 0c11-2 13-13 20-21-13-11-26 6-20 21zM1351 948c-3-1-19-9-19 3-1 9 25 18 15 35-9 15-46 5-26-9-1 15 19 14 21 4 1-10-30-22-14-38 6-6 26-9 23 5zM1379 938c2 3-3 6-3 10 5 3 18 0 23 1-1 10-16 5-25 6-3 7-9 22-2 28 8 1 7-6 14-7 0 10-10 16-15 15-15 0-11-23-6-36l-10 1c-2-4 4-8 11-7 3-5 3-12 13-11zM1488 955c-1 4-4 6-5 8 1 5 3 7 5 10 11-4 15-15 24-23l6 3c0 6-3 8-5 10l5 10c9-1 12-13 20-13 0 8-11 14-17 18 7 16-22 24-23 11-1-6 7-8 13-11 0-5-5-6-5-12-5 4-9 9-15 11 3 16-13 23-23 15-1-10 7-11 13-15-2-3-5-5-5-10-6 16-51 43-48 1 0-13 30-24 32-8 1 11-12 15-23 16-1 5 1 7 4 8 24-1 27-22 41-34 3 1 4 3 6 5zm-51 16c8 0 16-5 14-14-10 0-12 7-14 14zm38 18c4 5 12-4 7-7-2 3-7 3-7 7zm37-7c-2 4-7 3-6 8 6 3 11-5 6-8z" clip-rule="evenodd"/><path fill-rule="evenodd" d="M1429 955c0 5-4 5-5 8-4 1-3-3-6-2-13 2-14 36-27 28 0-11 5-22 4-33 3 1 3-1 7-1 4 4 0 11 0 16 6-7 14-25 27-16zM382 977c0 9-4 18-5 27-2 9-6 19 0 25 10-6 18-15 21-29l9 1c0 11-8 20-3 28 12-5 18-16 21-31h8c0 11-6 19-2 29 12-2 16-14 21-25-2-3-9 1-10-1 1-4 4-6 11-6 4-4 3-13 14-11 1 3-4 7-4 11 19 3 27-4 39-10-2 12-14 11-19 16h-21c-4 6-9 22-2 28 7 1 9-8 14-7-1 11-11 16-22 13-2-3-5-6-4-12-5 2-11 16-22 11-3-3-5-7-4-14-7 7-11 20-25 15-2-3-4-6-3-12-6 3-12 18-25 12-4-4-4-15-2-22-2-1-10 2-12-1 2 22-39 37-39 7-4 1-5 4-8 4 7 16-21 26-23 13-2-7 8-9 13-13-1-4-5-5-5-10-10 9-20 30-40 23-18-5-7-46 19-38 12 11-4 26-18 24-1 5 1 7 4 8 25 0 27-24 43-34 0 2 3 3 4 4 0 5-4 6-5 9l5 10c12-3 14-17 29-18 2 0 0-4 3-5 12 0 14 16 30 10 4-3 3-13 6-19-4-2-11-1-10-9 4 0 14 4 19-1zm-128 40c8-1 14-4 15-13-10-3-14 6-15 13zm78 14c10 1 13-10 13-22-17-13-30 21-13 22zm-40 4c4 5 12-4 7-7-2 3-7 4-7 7zM208 994c2 6-2 12-2 17 3-5 21-2 19-15-3-14-33 1-37 8-7-18 38-27 45-14 4 10-5 19-14 21 1 8 5 13 10 17 5 2 4-3 9-3-1 7-6 11-10 11-11 1-12-19-22-21-3 7-5 19-5 24-3 1-7 2-9 0 2-14 7-29 7-43l9-2z" clip-rule="evenodd"/><path fill-rule="evenodd" d="M528 996c14 0 13 15 31 11 2-3 1-7 10-6 2 5 0 12 0 16 7-7 8-20 23-19 6 6 3 21 6 30 11-1 11-20 21-21 1 5-5 15-10 21-15 18-23 0-22-23-11 7-16 19-20 31h-6c-3-7 0-17 1-24-5 1-11 2-15 0 2 21-33 36-38 12-9 4-11 15-25 12-10-7 1-22-2-32l8-1c4 9-5 19-1 27 20-2 16-28 39-29v-5zm-8 34c12 5 20-9 17-21-13-10-27 10-17 21zM1428 1012c-1 18-10 34-7 51 14-2 16-16 23-25 3 1 3-1 6-1 5 8-3 17-1 27 22-2 22-42 51-29 4 16-10 21-22 22-1 3 1 4 2 5 14 7 24-8 32-16-1-3-5 3-5-1-1-6 4-6 10-7 1-6 1-12 5-18 5-8 29-15 21 1-5 1-3-5-8-4-8 2-8 13-10 20 5 3 15 1 22 1-1 10-14 6-22 6-5 11-8 27-7 39-4 1-6 2-9 0-1-11 3-18 4-28-7 8-39 29-44 3-7 6-15 18-26 11-3-4-4-10-1-15-5 13-34 28-30 0-6 6-32 28-42 12-9-13 4-38 23-34 15 4 1 28-16 24-1 5 1 6 3 8 24-2 35-18 38-43-4-1-8-2-9-5v-4c5 2 14 2 19 0zm-51 39c8 0 16-5 14-14-10 0-12 8-14 14zm102 0c8 0 16-5 13-14-9 1-12 7-13 14zM1331 1029c2 5-2 11-2 16 3-3 24-3 19-16-6-13-35 5-37 9-4-18 29-23 44-15 5 12-5 20-13 23 1 8 5 13 11 17 4 1 4-3 8-4-1 8-6 11-10 11-12 1-12-19-22-21-2 7-5 18-4 23-2 3-7 5-10 2l8-44c2 0 6-2 8-1z" clip-rule="evenodd"/><path fill-rule="evenodd" d="M1461 1019c4 6-7 11-11 14-4 0-4-5-2-8 6 0 9-3 13-6zM762 1033c1 16-13 39-5 54 10 3 16-6 15-19-4-3-11-3-10-12 12-4 13 12 28 8 4-1 4-6 11-5 5 8-3 17-1 27 18-5 26-22 30-43-4-1-11-1-9-9 6 3 15 0 19 0-3 8-4 18-5 27-2 9-7 19-1 24 11-3 16-14 20-25h9c1 11-5 18-2 26 14-3 20-15 26-28-3-2-7 1-10 0 0-5 4-7 11-7 4-4 4-12 14-11 0 5-4 7-4 11 4 0 17 1 23-1 1 12-16 6-24 7-4 7-9 23-2 28 8 2 8-8 14-6-1 15-29 21-26-1-3 6-35 30-30-1-4 8-32 30-30 0-6 4-17 23-30 13-4-6 0-13 1-21-2-1-8 3-13 1-2 14-10 24-21 23-24 0-10-32-8-50-5-1-10-2-9-9 3 1 13 2 19-1zM727 1041c-3 19 0 38 7 50-10 7-14-6-14-15h-18c-4 4-6 9-5 16-3 0-7 3-9 0-1-7 3-11 5-16-1-1-6 1-8 1-1-6 4-7 11-7 11-8 13-26 31-29zm-22 29h14c-3-4 1-14-3-17-3 7-9 10-11 17z" clip-rule="evenodd"/><path fill-rule="evenodd" d="M812 1041c3 5-6 13-13 13-3-2 0-3 0-7 6 0 9-3 13-6zM874 1042c-3 7-7 12-15 12v-6c5 0 11-7 15-6zM943 1054l7 2c-2 14-10 26-17 35s-16 23-30 18v-7c11 4 18-4 23-11-1-13-8-21-12-32 14-4 13 15 18 23 5-7 9-16 11-28zM748 1121c-1 5-4 6-4 10 6 3 16 1 23 0 0 11-16 6-25 7-3 7-8 20-3 27 9 2 9-5 15-7 2 10-11 18-19 15-11-3-5-25-2-34-2-2-7 0-10-1-1-6 5-6 11-6 3-5 3-13 14-11zM861 1131c-4-3-18-9-19 2-1 9 15 14 17 24 1 12-9 23-25 19-3 0-15-7-5-16 2 12 21 15 23 3 1-9-34-27-11-40 7-4 23-5 20 8zM931 1121l-5 10c6 3 17 1 24 0-1 10-15 7-25 7-4 6-9 22-2 27 7 1 8-5 13-7 4 16-29 23-25 0-8 5-24 24-38 13-18-12 10-51 27-32 1 16-11 18-23 20 6 21 35-7 38-20-2-2-7 0-10-1 0-4 4-6 11-6 4-4 3-13 15-11zm-52 33c6-2 16-5 12-15-9 1-14 9-12 15z" clip-rule="evenodd"/><path fill-rule="evenodd" d="M778 1132c9 0 13 11 22 12 5 1 9-3 13-1 2 7-11 8-17 6 2 25-38 34-39 9-1-10 6-19 19-20 1-1 0-4 2-6zm-4 36c9 1 15-12 12-23-19-12-29 22-12 23zM844 1194c-1 18-10 34-7 51 20-3 20-37 48-28l11-2c-3 8-6 19-3 28 11-3 18-11 22-24 3 1 4-1 8-1 2 5-1 12-1 16 6-7 13-23 27-17-1 10-7 8-11 7-10 7-15 18-19 29-3 0-6 1-7-1-2-4 1-11 2-16-7 3-12 16-25 15l-2-1c-3-2-4-7-3-13-8 6-10 17-24 16-3-2-6-5-5-12-7 2-10 14-23 12-4-2-5-7-4-14-6 3-9 17-23 14-2-2-5-4-4-10-5 1-10 13-19 9-7-5-2-22-6-30-10 7-16 18-19 31h-7c-3-5 1-11 0-19-5 12-30 30-30 3-6 8-9 18-23 16-6-3-5-16-2-23-2-1-10 2-13-1-2 15-13 29-29 24-17-4-11-36 9-35 2 0-1-5 3-5 10 1 25 22 33 4l8 2c-1 9-7 18-4 27 13-4 18-17 22-31l8 1c-1 9-6 19-2 28 11-3 16-13 20-25l8-1c2 4 0 11 1 15 6-7 8-18 22-18 7 5 3 21 6 30 16-6 17-38 44-28 2-3 2-8 3-14-5-1-11-1-10-8 7 2 13 1 20-1zm-34 51c11-2 13-13 20-21-13-11-25 6-20 21zm55 0c10-2 14-13 19-22-14-10-25 10-19 22zm-208 3c13 1 16-9 16-22-14-12-29 13-16 22zM611 1212c0 6-3 8-2 13 2-2 19-4 15-15-13-7-26 5-34 11-8-26 66-25 36 2 26 14-8 43-30 29-1-14 6-26 5-39 2-1 7-3 10-1zm-6 36c10 5 23-2 22-11s-12-5-19-9c-1 8-4 12-3 20zM973 1202c-3 7-7 12-15 13-4-9 9-9 15-13zM1039 1217c0 5-2 8-5 8 1 5 4 7 5 11 9-1 12-13 20-13 0 8-10 13-16 17 3 16-13 23-23 15-2-11 7-11 13-15-2-3-4-5-5-10-7 12-38 38-48 12-6 2-19 19-29 7-1-11 2-19 3-29h7c3 9-5 19-1 27 19-2 23-39 46-32 14 5-2 28-18 24 11 25 37-16 45-26 3 1 5 2 6 4zm-50 17c7-1 15-3 14-14-11 0-13 7-14 14zm38 18c5 4 8-2 9-6-4-1-8 3-9 6z" clip-rule="evenodd"/></svg>