<?xml version="1.0" encoding="utf-8"?>
<!-- Generator: Adobe Illustrator 15.0.0, SVG Export Plug-In  -->
<!DOCTYPE svg PUBLIC "-//W3C//DTD SVG 1.1//EN" "http://www.w3.org/Graphics/SVG/1.1/DTD/svg11.dtd" [
	<!ENTITY ns_flows "http://ns.adobe.com/Flows/1.0/">
]>
<svg version="1.1"
	 xmlns="http://www.w3.org/2000/svg" xmlns:xlink="http://www.w3.org/1999/xlink" xmlns:a="http://ns.adobe.com/AdobeSVGViewerExtensions/3.0/"
	 x="0px" y="0px" width="100px" height="82px" viewBox="-17.453 7.816 100 82"
	 overflow="visible" enable-background="new -17.453 7.816 100 82" xml:space="preserve">
<defs>
</defs>
<path opacity="0.8" fill="#FFFFFF" d="M63.671,59.808c-0.016,0-0.032,0-0.04,0c-3.504,0-15.151-7.208-22.008-11.968
	c-2.528-9.464-7.392-12.84-7.601-12.976c-0.191-0.128-0.408-0.208-0.632-0.232c-0.239-0.024-0.6-0.088-1.04-0.168
	c-0.64-0.84-4.024-5.152-7.424-7.2c-0.168-0.12-1.664-1.528-2.656-13.424c-0.528-6.32-0.648-12.424-0.648-12.488
	C21.607,0.592,20.967-0.024,20.215,0c-0.76,0.016-1.368,0.64-1.352,1.408c0,0.064,0.12,6.36,0.672,12.832
	c1.024,12.072,2.576,14.552,3.96,15.392c1.536,0.92,3.12,2.448,4.368,3.8c-1.736-0.432-3.44-0.872-4.408-1.136
	c-0.432-0.112-0.888-0.016-1.232,0.264c-2.496,2.048-6.624,3.12-6.672,3.128c-0.704,0.176-1.144,0.872-1.016,1.584
	c0.44,2.448,1.712,3.616,2.704,4.167c1.984,1.104,4.32,0.656,5.448,0.328l2.072,1.144c0.024,0.009,0.04,0.024,0.064,0.032
	c1.792,0.872,2.208,1.721,2.232,2.032c-0.04,0.08-0.008,0.056-0.024,0.192c-0.936,8.071,0.344,12.384,1.504,14.536
	c-0.376,0-0.736-0.088-1.064-0.264c-2.232-1.209-3.256-6.145-3.44-7.776c-0.08-0.761-0.768-1.304-1.52-1.216
	c-0.76,0.088-1.304,0.768-1.216,1.52c0.072,0.624,0.64,5.152,2.816,8.057c-1.12,0.463-1.68,0.168-1.888,0.055
	c-0.952-0.504-1.784-2.023-2.344-4.295c-0.472-1.937-0.568-3.713-0.568-3.729c-0.04-0.76-0.696-1.344-1.448-1.304
	c-0.76,0.04-1.344,0.688-1.304,1.448c0.032,0.592,0.28,4.479,1.784,7.424c-0.656,0.16-1-0.024-1.144-0.096
	c-1.672-0.873-2.512-4.961-2.656-6.809c-0.056-0.76-0.728-1.328-1.48-1.264c-0.76,0.056-1.328,0.72-1.272,1.479
	c0.024,0.328,0.16,1.8,0.608,3.496c-1.6-1.168-2.248-3.632-2.352-4.071c0.72-0.201,1.872-0.648,2.44-1.553
	c0.344-0.535,0.424-1.16,0.248-1.792c-0.152-0.56-0.464-0.96-0.856-1.256c0.328-0.256,0.624-0.552,0.84-0.896
	c0.432-0.688,0.544-1.479,0.32-2.288c-0.144-0.512-0.384-0.92-0.696-1.248c0.68-0.535,1.08-1.287,1.176-2.184
	c0.168-1.656-0.808-2.84-2.048-3.624c0.072-0.048,0.144-0.088,0.216-0.136c0.664-0.488,1.056-1.192,1.144-2.04
	c0.24-2.384-2.12-3.64-3.888-4.112c0.216-1.656-0.032-6.792-6.32-19.976c-0.328-0.688-1.152-0.976-1.84-0.648
	c-0.688,0.328-0.976,1.152-0.648,1.84c6.872,14.424,6.064,18.488,6.056,18.528c0.008-0.048,0.024-0.072,0.024-0.072l0.472,0.16
	c-0.64,0.064-1.352,0.248-1.944,0.664c-0.616,0.44-1.008,1.08-1.128,1.848c-0.168,1.072,0.056,2.04,0.648,2.808
	c0.12,0.152,0.248,0.296,0.384,0.424c-0.136,0.072-0.272,0.152-0.4,0.24c-0.68,0.488-1.112,1.2-1.248,2.04
	c-0.192,1.208,0.056,2.304,0.728,3.168c0.336,0.432,0.744,0.768,1.152,1.023c-0.328,0.24-0.632,0.536-0.864,0.896
	c-0.408,0.632-0.536,1.352-0.376,2.104c0.232,1.064,0.792,1.896,1.632,2.4c0.16,0.097,0.328,0.177,0.496,0.248
	c-0.208,0.433-0.272,0.912-0.16,1.408c0.176,0.815,0.616,1.456,1.256,1.848c0.152,0.089,0.304,0.16,0.464,0.224
	c-0.016,0.145-0.024,0.297,0.008,0.457c0.016,0.071,0.352,1.688,1.288,3.319c1.264,2.208,3.032,3.448,5.128,3.608
	c0.552,0.92,1.264,1.712,2.168,2.191c0.496,0.256,1.144,0.473,1.944,0.473c0.648,0,1.384-0.145,2.216-0.521
	c0.272,0.232,0.56,0.44,0.88,0.601c0.528,0.271,1.216,0.504,2.064,0.504c0.928,0,2.048-0.28,3.352-1.064
	c1.104,0.545,2.832,0.881,5.096-0.256l0,0c0.008-0.008,0.016-0.008,0.024-0.016c0.056-0.032,0.112-0.064,0.16-0.104
	c0.008-0.008,0.016-0.008,0.024-0.016c0.176-0.009,1.393,0.071,3.784,3.248c3.968,5.28,8.416,10.288,8.464,10.336
	c0.271,0.304,0.648,0.464,1.032,0.464c0.327,0,0.655-0.111,0.92-0.352c0.567-0.504,0.616-1.377,0.112-1.944
	c-0.041-0.048-4.416-4.968-8.312-10.16c-2.111-2.808-3.984-4.231-5.736-4.344c-0.24-0.017-0.464-0.009-0.68,0.032
	c-0.808-1.248-2.424-4.896-1.464-13.28c0.144-0.713,0.288-3.137-3.696-5.08l-2.568-1.416c-0.36-0.2-0.792-0.225-1.168-0.08
	c-0.624,0.24-2.52,0.728-3.744,0.04c-0.408-0.232-0.728-0.584-0.968-1.072c1.472-0.488,3.856-1.416,5.792-2.816
	c1.944,0.512,7.192,1.872,9.304,2.2c0.393,0.32,1.24,1.096,2.224,2.432c1.257,1.703,2.992,4.688,4.144,9.264
	c0.08,0.32,0.272,0.6,0.545,0.792C41.535,51.16,58.055,62.609,63.679,62.6c0.016,0,0.032,0,0.049,0
	c0.76-0.008,1.375-0.632,1.367-1.392C65.04,60.417,64.423,59.808,63.671,59.808z M10.832,49.768
	c-0.24,0.384-1.168,0.712-1.712,0.808c-0.032,0.009-0.064,0.017-0.096,0.024c-0.144,0.04-0.808,0.152-1.2-0.088
	c-0.12-0.071-0.28-0.208-0.368-0.601c-0.016-0.088-0.008-0.135,0.024-0.184c0.184-0.287,0.824-0.544,1.2-0.623
	c0.528-0.097,2-0.169,2.16,0.432C10.887,49.665,10.863,49.72,10.832,49.768z M5.423,39.472c0.032-0.192,0.104-0.312,0.24-0.416
	c0.344-0.248,0.968-0.328,1.504-0.328c0.304,0,0.584,0.024,0.768,0.056c0.704,0.137,3.208,0.872,3.08,2.104
	c-0.032,0.296-0.144,0.416-0.264,0.512c-0.64,0.472-2.208,0.433-3.12,0.248c-0.032-0.008-0.08-0.016-0.112-0.016
	c-0.36-0.04-1.392-0.28-1.864-0.904C5.416,40.417,5.335,40,5.423,39.472z M10.879,45.168c0.072,0.256,0.016,0.392-0.056,0.512
	c-0.376,0.6-1.696,1.072-2.504,1.216c-0.04,0.008-0.072,0.016-0.104,0.024C7.983,46.984,7,47.144,6.383,46.776
	c-0.304-0.184-0.504-0.504-0.608-0.976c-0.04-0.168-0.016-0.288,0.064-0.424c0.328-0.505,1.344-0.864,1.8-0.96
	C8.231,44.304,10.583,44.104,10.879,45.168z M6.031,33.952c0.016-0.12,0.056-0.168,0.12-0.216c0.24-0.176,0.712-0.24,1.144-0.24
	c0.224,0,0.44,0.016,0.608,0.04c0.688,0.136,2.496,0.736,2.416,1.544c-0.016,0.176-0.072,0.232-0.144,0.288
	c-0.48,0.352-1.744,0.312-2.448,0.176c-0.032-0.008-0.08-0.016-0.112-0.016c-0.256-0.032-1.08-0.216-1.424-0.68
	C6.087,34.712,5.951,34.464,6.031,33.952z"/>
</svg>
